HIERARCHY
ROOT root
{
	OFFSET	0	13.1	24.9
	CHANNELS 6  Xposition Yposition Zposition Xrotation Yrotation Zrotation
	JOINT spine_1
	{
		OFFSET	0	9.99999	0
		CHANNELS 3  Xrotation Yrotation Zrotation
		JOINT spine_2
		{
			OFFSET	0	112	-10
			CHANNELS 3  Xrotation Yrotation Zrotation
			JOINT spine_3
			{
				OFFSET	0	206.5	19.3
				CHANNELS 3  Xrotation Yrotation Zrotation
				JOINT spine_4
				{
					OFFSET	0	110.4	14.6
					CHANNELS 3  Xrotation Yrotation Zrotation
					JOINT neck_1
					{
						OFFSET	0	71.8	-50.3
						CHANNELS 3  Xrotation Yrotation Zrotation
						JOINT neck_2
						{
							OFFSET	0	86.2	-25.8
							CHANNELS 3  Xrotation Yrotation Zrotation
							JOINT head_ee
							{
								OFFSET	0	179.8	-8.7
								CHANNELS 3  Xrotation Yrotation Zrotation
								End Site
								{
									OFFSET	1	0	0
								}
							}
						}
					}
					JOINT left_clavicle
					{
						OFFSET	-43.2	22.4	-70.8
						CHANNELS 3  Xrotation Yrotation Zrotation
						JOINT left_shoulder
						{
							OFFSET	-93.9	-5.79999	48.7
							CHANNELS 3  Xrotation Yrotation Zrotation
							JOINT left_elbow
							{
								OFFSET	-291.4	-30.8	15.2
								CHANNELS 3  Xrotation Yrotation Zrotation
								JOINT left_lowarm_twist
								{
									OFFSET	-110.7	-3.89999	13.6
									CHANNELS 3  Xrotation Yrotation Zrotation
									JOINT left_hand
									{
										OFFSET	-110.7	-3.89999	13.6
										CHANNELS 3  Xrotation Yrotation Zrotation
										JOINT left_ee
										{
											OFFSET	-80.8	-5.10001	12.1
											CHANNELS 3  Xrotation Yrotation Zrotation
											End Site
											{
												OFFSET	1	0	0
											}
										}
									}
								}
							}
						}
					}
					JOINT right_clavicle
					{
						OFFSET	43.2	22.4	-70.8
						CHANNELS 3  Xrotation Yrotation Zrotation
						JOINT right_shoulder
						{
							OFFSET	93.9	-5.79999	48.7
							CHANNELS 3  Xrotation Yrotation Zrotation
							JOINT right_elbow
							{
								OFFSET	291.4	-30.8	15.2
								CHANNELS 3  Xrotation Yrotation Zrotation
								JOINT right_lowarm_twist
								{
									OFFSET	110.7	-3.89999	13.6
									CHANNELS 3  Xrotation Yrotation Zrotation
									JOINT right_hand
									{
										OFFSET	110.7	-3.89999	13.6
										CHANNELS 3  Xrotation Yrotation Zrotation
										JOINT right_ee
										{
											OFFSET	80.8	-5.10001	12.1
											CHANNELS 3  Xrotation Yrotation Zrotation
											End Site
											{
												OFFSET	1	0	0
											}
										}
									}
								}
							}
						}
					}
				}
			}
		}
	}
	JOINT left_hip
	{
		OFFSET	-82.8	-127.5	0.300001
		CHANNELS 3  Xrotation Yrotation Zrotation
		JOINT left_knee
		{
			OFFSET	-28.2	-396.7	2.2
			CHANNELS 3  Xrotation Yrotation Zrotation
			JOINT left_ankle
			{
				OFFSET	-11.7	-411.3	35.4
				CHANNELS 3  Xrotation Yrotation Zrotation
				JOINT left_toes
				{
					OFFSET	0	-60	-88.6
					CHANNELS 3  Xrotation Yrotation Zrotation
					JOINT left_foot_ee
					{
						OFFSET	-22.5	-16.5	-42.2
						CHANNELS 3  Xrotation Yrotation Zrotation
						End Site
						{
							OFFSET	1	0	0
						}
					}
				}
			}
		}
	}
	JOINT right_hip
	{
		OFFSET	82.8	-127.5	0.300001
		CHANNELS 3  Xrotation Yrotation Zrotation
		JOINT right_knee
		{
			OFFSET	28.2	-396.7	2.2
			CHANNELS 3  Xrotation Yrotation Zrotation
			JOINT right_ankle
			{
				OFFSET	11.7	-411.3	35.4
				CHANNELS 3  Xrotation Yrotation Zrotation
				JOINT right_toes
				{
					OFFSET	0	-60	-88.6
					CHANNELS 3  Xrotation Yrotation Zrotation
					JOINT right_foot_ee
					{
						OFFSET	22.5	-16.5	-42.2
						CHANNELS 3  Xrotation Yrotation Zrotation
						End Site
						{
							OFFSET	1	0	0
						}
					}
				}
			}
		}
	}
}
MOTION
Frames: 11
Frame Time: 0.02
3177.02 653.055 -1669.29 -0.654083918391 16.8775268156 1.69873256026 -0.219007 0.0553673 -0.118265 -0.219001 0.0627806 -0.114503 -0.219128 0.0858212 -0.0984224 -0.219135 0.0692001 -0.110741 6.45918 7.48992 0.787117 6.63801 11.9926 1.16681 -0.0 0.0 -0.0 7.11977 17.5945 13.1348 -37.197 -25.5542 64.9936 0.303651 -8.55447 0.0227103 57.9563 -1.5954 -6.91623 1.06131 -15.0764 0.713231 -0.0 0.0 -0.0 9.58172 27.29 -17.7888 -4.03253 52.0729 -45.5838 0.356019 10.0021 -0.0311542 -49.0904 3.96558 -4.63449 0.0252345 25.1173 10.4842 0.0 0.0 0.0 25.5549 -7.01888 -2.13222 0.24735 -0.0102643 -0.0365701 -1.57844 29.0447 0.247619 19.3277 -0.0 -0.0 -0.0 0.0 -0.0 -4.83913 -3.87611 1.30331 -17.5033 -0.317004 -2.6569 -23.4225 -30.1854 -3.78756 -11.6192 0.0 0.0 0.0 0.0 0.0 
3177.02 653.055 -1669.29 -0.655728393051 17.3448366174 1.70432165243 -0.219007 0.0553673 -0.118265 -0.219001 0.0627806 -0.114503 -0.219128 0.0858212 -0.0984224 -0.219135 0.0692001 -0.110741 6.45918 7.48992 0.787117 6.63801 11.9926 1.16681 -0.0 0.0 -0.0 7.11977 17.5945 13.1348 -37.197 -25.5542 64.9936 0.303651 -8.55447 0.0227103 57.9563 -1.5954 -6.91623 1.06131 -15.0764 0.713231 -0.0 0.0 -0.0 9.58172 27.29 -17.7888 -4.03253 52.0729 -45.5838 0.356019 10.0021 -0.0311542 -49.0904 3.96558 -4.63449 0.0252345 25.1173 10.4842 0.0 0.0 0.0 25.5549 -7.01888 -2.13222 0.24735 -0.0102643 -0.0365701 -1.57844 29.0447 0.247619 19.3277 -0.0 -0.0 -0.0 0.0 -0.0 -4.83913 -3.87611 1.30331 -17.5033 -0.317004 -2.6569 -23.4225 -30.1854 -3.78756 -11.6192 0.0 0.0 0.0 0.0 0.0 
3154.69527732 664.641 -1688.08754202 -0.631030059948 14.2259157822 1.36764629726 -0.523076 0.0465075 -0.0653076 -0.523075 0.0505689 -0.0622159 -0.523131 0.0629714 -0.0496249 -0.523131 0.0543438 -0.0589473 7.19843 7.10904 -0.518708 7.42178 12.429 -0.42568 -0.0 0.0 -0.0 7.55366 15.9997 13.9668 -34.9804 -23.1693 67.8059 0.346678 -9.74478 0.0295526 59.7111 -1.74827 -7.08121 1.23833 -18.788 0.256745 -0.0 0.0 -0.0 10.111 27.4952 -18.9459 -7.60114 51.6558 -46.7647 0.243098 6.86686 -0.014585 -49.8623 4.05566 -4.67568 0.691914 25.8884 6.46143 0.0 0.0 0.0 25.6 -6.0308 -2.0262 -3.16644 0.117361 0.471715 -2.82978 29.4842 0.446289 20.3951 -0.0 -0.0 -0.0 0.0 -0.0 -3.89023 -0.735939 1.50665 -20.8501 -0.284565 -3.16933 -23.7958 -30.3276 -3.85187 -10.4537 0.0 0.0 0.0 0.0 0.0 
3144.96905418 661.022 -1699.17011124 0.0471581799854 11.258048051 1.19797372159 -0.879472 0.0334896 0.253824 -0.879436 0.0172703 0.255441 -0.879333 -0.0406873 0.25277 -0.879422 -0.00025641 0.256024 6.05827 6.86576 -0.498718 6.25485 12.1127 -0.325072 -0.0 0.0 -0.0 7.86271 13.6503 14.676 -31.4445 -20.0633 66.7349 0.379451 -10.6458 0.0353538 61.9738 -1.95277 -7.28697 1.40741 -21.8727 -0.0115181 -0.0 0.0 -0.0 9.04701 27.9518 -16.5262 -7.14028 52.1244 -48.0098 0.266777 7.52838 -0.0175518 -49.8097 4.04951 -4.67291 1.34645 27.0761 2.77141 0.0 0.0 0.0 25.8079 -4.35958 -2.29598 -8.06234 0.247034 1.21165 -1.86314 29.9279 0.294181 21.8644 -0.0 -0.0 -0.0 0.0 -0.0 -2.15415 3.70183 2.28967 -25.6374 -0.186293 -3.89718 -24.8924 -30.2609 -4.02773 -8.97315 0.0 0.0 0.0 0.0 0.0 
3119.09757691 675.97 -1732.88128029 3.35558519466 5.838644609 1.02977981478 -1.87292 0.539761 0.533176 -1.87291 0.504741 0.566441 -1.86767 0.352737 0.671709 -1.86801 0.454392 0.607574 3.60685 6.18745 1.90727 3.68664 9.09573 2.53453 -0.0 0.0 -0.0 8.20706 9.59759 15.583 -25.2481 -14.2376 66.7061 0.484325 -13.4916 0.0572881 65.923 -2.32866 -7.6263 1.86859 -27.1432 0.539102 -0.0 0.0 -0.0 8.07695 28.7957 -14.288 -5.3865 53.156 -54.2388 0.389481 10.9205 -0.0372303 -47.3425 3.76367 -4.53675 2.75984 28.4368 -5.58413 0.0 0.0 0.0 26.4377 1.14648 -3.53192 -21.4679 0.275307 3.26367 2.8174 25.8547 -0.429389 25.3709 -0.0 -0.0 -0.0 0.0 -0.0 1.56369 13.8099 1.80975 -39.693 0.447354 -5.95527 -24.8749 -27.3095 -3.94945 -5.52477 0.0 0.0 0.0 0.0 0.0 
3098.49800393 677.019 -1765.9150004 3.45051914721 6.12557596752 0.0429859836299 -1.75402 0.429347 0.871858 -1.75367 0.373001 0.897409 -1.74726 0.146863 0.960674 -1.74843 0.296734 0.925428 3.61069 3.66327 0.685436 3.64289 5.76426 1.0048 -0.0 0.0 -0.0 8.37321 4.06083 16.2035 -19.4432 -10.1854 64.7713 0.59172 -16.3371 0.0849374 70.511 -2.79356 -7.9871 2.02712 -28.5239 0.888555 -0.0 0.0 -0.0 6.29063 28.5785 -10.4003 -8.51064 52.027 -60.4897 0.549041 15.2154 -0.0733333 -44.8927 3.48588 -4.3895 2.73621 28.1087 -5.60167 0.0 0.0 0.0 23.2732 3.00728 -1.43106 -18.649 0.309269 2.83252 6.68386 19.824 -0.980904 24.2604 -0.0 -0.0 -0.0 0.0 -0.0 8.00367 24.3122 -1.47824 -50.0816 1.22928 -7.34685 -22.142 -28.7373 -3.5455 -3.69305 0.0 0.0 0.0 0.0 0.0 
3097.74428169 677.019 -1765.29757812 3.45352323008 6.57312775559 0.0158221490166 -1.75402 0.429347 0.871858 -1.75367 0.373001 0.897409 -1.74726 0.146863 0.960674 -1.74843 0.296734 0.925428 3.61069 3.66327 0.685436 3.64289 5.76426 1.0048 -0.0 0.0 -0.0 8.37321 4.06083 16.2035 -19.4432 -10.1854 64.7713 0.59172 -16.3371 0.0849374 70.511 -2.79356 -7.9871 2.02712 -28.5239 0.888555 -0.0 0.0 -0.0 6.29063 28.5785 -10.4003 -8.51064 52.027 -60.4897 0.549041 15.2154 -0.0733333 -44.8927 3.48588 -4.3895 2.73621 28.1087 -5.60167 0.0 0.0 0.0 23.2732 3.00728 -1.43106 -18.649 0.309269 2.83252 6.68386 19.824 -0.980904 24.2604 -0.0 -0.0 -0.0 0.0 -0.0 8.00367 24.3122 -1.47824 -50.0816 1.22928 -7.34685 -22.142 -28.7373 -3.5455 -3.69305 0.0 0.0 0.0 0.0 0.0 
3097.29463716 677.019 -1764.92451829 3.45542844384 6.84150173312 -0.000489912651262 -1.75402 0.429347 0.871858 -1.75367 0.373001 0.897409 -1.74726 0.146863 0.960674 -1.74843 0.296734 0.925428 3.61069 3.66327 0.685436 3.64289 5.76426 1.0048 -0.0 0.0 -0.0 8.37321 4.06083 16.2035 -19.4432 -10.1854 64.7713 0.59172 -16.3371 0.0849374 70.511 -2.79356 -7.9871 2.02712 -28.5239 0.888555 -0.0 0.0 -0.0 6.29063 28.5785 -10.4003 -8.51064 52.027 -60.4897 0.549041 15.2154 -0.0733333 -44.8927 3.48588 -4.3895 2.73621 28.1087 -5.60167 0.0 0.0 0.0 23.2732 3.00728 -1.43106 -18.649 0.309269 2.83252 6.68386 19.824 -0.980904 24.2604 -0.0 -0.0 -0.0 0.0 -0.0 8.00367 24.3122 -1.47824 -50.0816 1.22928 -7.34685 -22.142 -28.7373 -3.5455 -3.69305 0.0 0.0 0.0 0.0 0.0 
3096.92240278 677.019 -1764.61297461 3.45707069414 7.06446904896 -0.0140560528313 -1.75402 0.429347 0.871858 -1.75367 0.373001 0.897409 -1.74726 0.146863 0.960674 -1.74843 0.296734 0.925428 3.61069 3.66327 0.685436 3.64289 5.76426 1.0048 -0.0 0.0 -0.0 8.37321 4.06083 16.2035 -19.4432 -10.1854 64.7713 0.59172 -16.3371 0.0849374 70.511 -2.79356 -7.9871 2.02712 -28.5239 0.888555 -0.0 0.0 -0.0 6.29063 28.5785 -10.4003 -8.51064 52.027 -60.4897 0.549041 15.2154 -0.0733333 -44.8927 3.48588 -4.3895 2.73621 28.1087 -5.60167 0.0 0.0 0.0 23.2732 3.00728 -1.43106 -18.649 0.309269 2.83252 6.68386 19.824 -0.980904 24.2604 -0.0 -0.0 -0.0 0.0 -0.0 8.00367 24.3122 -1.47824 -50.0816 1.22928 -7.34685 -22.142 -28.7373 -3.5455 -3.69305 0.0 0.0 0.0 0.0 0.0 
3096.40071874 677.019 -1764.17216933 3.45947291769 7.37819126134 -0.0331663582638 -1.75402 0.429347 0.871858 -1.75367 0.373001 0.897409 -1.74726 0.146863 0.960674 -1.74843 0.296734 0.925428 3.61069 3.66327 0.685436 3.64289 5.76426 1.0048 -0.0 0.0 -0.0 8.37321 4.06083 16.2035 -19.4432 -10.1854 64.7713 0.59172 -16.3371 0.0849374 70.511 -2.79356 -7.9871 2.02712 -28.5239 0.888555 -0.0 0.0 -0.0 6.29063 28.5785 -10.4003 -8.51064 52.027 -60.4897 0.549041 15.2154 -0.0733333 -44.8927 3.48588 -4.3895 2.73621 28.1087 -5.60167 0.0 0.0 0.0 23.2732 3.00728 -1.43106 -18.649 0.309269 2.83252 6.68386 19.824 -0.980904 24.2604 -0.0 -0.0 -0.0 0.0 -0.0 8.00367 24.3122 -1.47824 -50.0816 1.22928 -7.34685 -22.142 -28.7373 -3.5455 -3.69305 0.0 0.0 0.0 0.0 0.0 
3095.09745234 677.019 -1763.0492169 3.46600031774 8.16841185516 -0.0814255566841 -1.75402 0.429347 0.871858 -1.75367 0.373001 0.897409 -1.74726 0.146863 0.960674 -1.74843 0.296734 0.925428 3.61069 3.66327 0.685436 3.64289 5.76426 1.0048 -0.0 0.0 -0.0 8.37321 4.06083 16.2035 -19.4432 -10.1854 64.7713 0.59172 -16.3371 0.0849374 70.511 -2.79356 -7.9871 2.02712 -28.5239 0.888555 -0.0 0.0 -0.0 6.29063 28.5785 -10.4003 -8.51064 52.027 -60.4897 0.549041 15.2154 -0.0733333 -44.8927 3.48588 -4.3895 2.73621 28.1087 -5.60167 0.0 0.0 0.0 23.2732 3.00728 -1.43106 -18.649 0.309269 2.83252 6.68386 19.824 -0.980904 24.2604 -0.0 -0.0 -0.0 0.0 -0.0 8.00367 24.3122 -1.47824 -50.0816 1.22928 -7.34685 -22.142 -28.7373 -3.5455 -3.69305 0.0 0.0 0.0 0.0 0.0 
